<svg xmlns="http://www.w3.org/2000/svg" viewBox="0 0 1200 630" role="img" aria-labelledby="title desc">
  <title id="title">The boring part is the edge</title>
  <desc id="desc">A notebook, terminal grid, and receipt cards in muted institutional colors.</desc>
  <defs>
    <linearGradient id="bg" x1="0" x2="1" y1="0" y2="1">
      <stop offset="0" stop-color="#10181d"/>
      <stop offset="0.55" stop-color="#253b42"/>
      <stop offset="1" stop-color="#f3ead0"/>
    </linearGradient>
    <filter id="shadow" x="-20%" y="-20%" width="140%" height="140%">
      <feDropShadow dx="0" dy="18" stdDeviation="16" flood-color="#071014" flood-opacity="0.28"/>
    </filter>
  </defs>
  <rect width="1200" height="630" fill="url(#bg)"/>
  <g opacity="0.16" stroke="#fff8df" stroke-width="1">
    <path d="M0 112h1200M0 224h1200M0 336h1200M0 448h1200M0 560h1200"/>
    <path d="M120 0v630M240 0v630M360 0v630M480 0v630M600 0v630M720 0v630M840 0v630M960 0v630M1080 0v630"/>
  </g>
  <rect x="94" y="90" width="432" height="420" rx="28" fill="#fff8df" filter="url(#shadow)"/>
  <rect x="130" y="132" width="300" height="18" rx="9" fill="#37505c"/>
  <rect x="130" y="182" width="326" height="12" rx="6" fill="#60739f" opacity="0.55"/>
  <rect x="130" y="216" width="260" height="12" rx="6" fill="#60739f" opacity="0.42"/>
  <rect x="130" y="250" width="326" height="12" rx="6" fill="#60739f" opacity="0.55"/>
  <rect x="130" y="316" width="150" height="46" rx="12" fill="#1f5d42"/>
  <rect x="300" y="316" width="150" height="46" rx="12" fill="#37505c"/>
  <rect x="632" y="124" width="420" height="74" rx="18" fill="#111b20" stroke="#fff8df" stroke-opacity="0.28"/>
  <rect x="632" y="226" width="420" height="74" rx="18" fill="#111b20" stroke="#fff8df" stroke-opacity="0.28"/>
  <rect x="632" y="328" width="420" height="74" rx="18" fill="#111b20" stroke="#fff8df" stroke-opacity="0.28"/>
  <text x="668" y="170" fill="#fff8df" font-family="Georgia, serif" font-size="30">verify before victory</text>
  <text x="668" y="272" fill="#fff8df" font-family="Georgia, serif" font-size="30">receipts over vibes</text>
  <text x="668" y="374" fill="#fff8df" font-family="Georgia, serif" font-size="30">boring is leverage</text>
  <text x="94" y="574" fill="#fff8df" font-family="Arial, sans-serif" font-size="24" letter-spacing="5">SMALL TOWN CAPITAL / OPERATOR JOURNAL</text>
</svg>
