<svg xmlns="http://www.w3.org/2000/svg" viewBox="0 0 1200 675" role="img" aria-labelledby="title desc"><title id="title">Building in Public Without Becoming a Guru</title><desc id="desc">A warm operator workspace with private dashboard, public blog page, notes, and research cards.</desc><defs><linearGradient id="bg" x1="0" y1="0" x2="0" y2="1"><stop offset="0" stop-color="#101a2a"/><stop offset="1" stop-color="#1b2d25"/></linearGradient><radialGradient id="lamp" cx="50%" cy="35%" r="55%"><stop offset="0" stop-color="#f0a64a" stop-opacity=".38"/><stop offset="1" stop-color="#f0a64a" stop-opacity="0"/></radialGradient></defs><rect width="1200" height="675" fill="url(#bg)"/><rect width="1200" height="675" fill="url(#lamp)"/><rect x="190" y="450" width="820" height="90" rx="18" fill="#5b3925"/><rect x="235" y="150" width="315" height="230" rx="20" fill="#0c1118" stroke="#f4ead6" stroke-opacity=".35" stroke-width="3"/><rect x="650" y="135" width="310" height="245" rx="20" fill="#0c1118" stroke="#f4ead6" stroke-opacity=".35" stroke-width="3"/><text x="392" y="195" text-anchor="middle" font-family="Inter, Arial" font-size="25" font-weight="800" fill="#f4ead6">Private Command Center</text><text x="805" y="180" text-anchor="middle" font-family="Inter, Arial" font-size="25" font-weight="800" fill="#f4ead6">Public Blog Draft</text><g stroke="#2ee68c" stroke-width="5" fill="none"><path d="M275 315 L335 285 L410 305 L500 235"/><path d="M690 300 H920"/><path d="M690 330 H850"/></g><g fill="#f4ead6" opacity=".9"><rect x="270" y="220" width="85" height="28" rx="8"/><rect x="370" y="220" width="75" height="28" rx="8"/><rect x="460" y="220" width="55" height="28" rx="8"/><rect x="690" y="210" width="230" height="24" rx="7"/><rect x="690" y="248" width="260" height="16" rx="5"/><rect x="690" y="272" width="220" height="16" rx="5"/></g><g transform="translate(520 325)"><circle cx="80" cy="55" r="44" fill="#c98d4b"/><rect x="40" y="95" width="160" height="170" rx="40" fill="#1f5d42"/><path d="M80 98 C40 130 22 155 10 210" stroke="#c98d4b" stroke-width="24" fill="none" stroke-linecap="round"/><path d="M142 105 C180 140 205 165 225 215" stroke="#c98d4b" stroke-width="24" fill="none" stroke-linecap="round"/></g><g font-family="Inter, Arial" font-size="20" font-weight="800" fill="#13231d"><g><rect x="185" y="465" width="135" height="54" rx="14" fill="#f4ead6"/><text x="252" y="499" text-anchor="middle">Dashboard</text></g><g><rect x="340" y="468" width="135" height="54" rx="14" fill="#f4ead6"/><text x="407" y="502" text-anchor="middle">Trade Notes</text></g><g><rect x="725" y="468" width="135" height="54" rx="14" fill="#f4ead6"/><text x="792" y="502" text-anchor="middle">Research</text></g><g><rect x="880" y="465" width="145" height="54" rx="14" fill="#f4ead6"/><text x="952" y="499" text-anchor="middle">Postmortem</text></g></g><g transform="translate(960 265)" opacity=".45"><rect x="0" y="0" width="110" height="160" rx="24" fill="#f4ead6"/><circle cx="55" cy="42" r="22" fill="#101a2a"/><path d="M28 88h54M28 112h54" stroke="#101a2a" stroke-width="8"/></g><text x="600" y="615" text-anchor="middle" font-family="Inter, Arial" font-size="30" font-weight="800" fill="#f4ead6">Build the machine. Document the machine.</text></svg>