<svg xmlns="http://www.w3.org/2000/svg" width="1200" height="630" viewBox="0 0 1200 630" role="img" aria-labelledby="title desc">
  <title id="title">Institutional footprint mapping</title>
  <desc id="desc">A dark research desk graphic with filing cards, ownership paths, and institutional footprint nodes.</desc>
  <defs>
    <linearGradient id="paper" x1="0" y1="0" x2="1" y2="1">
      <stop offset="0" stop-color="#f4ead7"/>
      <stop offset="1" stop-color="#dcc9a5"/>
    </linearGradient>
    <linearGradient id="field" x1="0" y1="0" x2="0" y2="1">
      <stop offset="0" stop-color="#10251d"/>
      <stop offset="1" stop-color="#07130f"/>
    </linearGradient>
    <filter id="shadow" x="-20%" y="-20%" width="140%" height="140%">
      <feDropShadow dx="0" dy="18" stdDeviation="18" flood-color="#000000" flood-opacity="0.35"/>
    </filter>
  </defs>

  <rect width="1200" height="630" fill="url(#field)"/>
  <path d="M0 92 C180 45 300 150 480 94 C650 42 810 92 1200 36 L1200 0 L0 0 Z" fill="#1f4634" opacity="0.34"/>
  <path d="M0 565 C185 505 340 585 530 535 C760 474 940 548 1200 500 L1200 630 L0 630 Z" fill="#c89b3c" opacity="0.12"/>

  <g opacity="0.18" stroke="#f4ead7" stroke-width="1">
    <path d="M95 80 H1110"/>
    <path d="M95 160 H1110"/>
    <path d="M95 240 H1110"/>
    <path d="M95 320 H1110"/>
    <path d="M95 400 H1110"/>
    <path d="M95 480 H1110"/>
    <path d="M180 55 V550"/>
    <path d="M360 55 V550"/>
    <path d="M540 55 V550"/>
    <path d="M720 55 V550"/>
    <path d="M900 55 V550"/>
  </g>

  <g filter="url(#shadow)">
    <rect x="92" y="78" width="435" height="440" rx="20" fill="url(#paper)"/>
    <rect x="118" y="112" width="190" height="18" rx="9" fill="#143726" opacity="0.9"/>
    <rect x="118" y="154" width="332" height="10" rx="5" fill="#143726" opacity="0.35"/>
    <rect x="118" y="184" width="280" height="10" rx="5" fill="#143726" opacity="0.28"/>
    <rect x="118" y="214" width="356" height="10" rx="5" fill="#143726" opacity="0.32"/>
    <rect x="118" y="272" width="250" height="12" rx="6" fill="#9d7426" opacity="0.65"/>
    <rect x="118" y="306" width="360" height="10" rx="5" fill="#143726" opacity="0.3"/>
    <rect x="118" y="336" width="305" height="10" rx="5" fill="#143726" opacity="0.25"/>
    <rect x="118" y="396" width="154" height="34" rx="17" fill="#143726" opacity="0.92"/>
    <text x="144" y="419" font-family="Georgia, serif" font-size="18" fill="#f4ead7">13F trail</text>
  </g>

  <g fill="none" stroke-linecap="round" stroke-linejoin="round">
    <path d="M610 168 C705 105 780 124 862 182 C940 238 1004 226 1080 188" stroke="#d2a242" stroke-width="5" opacity="0.86"/>
    <path d="M610 310 C720 266 784 292 850 352 C914 410 997 392 1080 332" stroke="#f4ead7" stroke-width="4" opacity="0.7"/>
    <path d="M610 450 C705 478 785 438 858 468 C927 496 1000 482 1080 430" stroke="#75a884" stroke-width="5" opacity="0.75"/>
  </g>

  <g>
    <circle cx="610" cy="168" r="18" fill="#d2a242"/>
    <circle cx="862" cy="182" r="28" fill="#f4ead7"/>
    <circle cx="1080" cy="188" r="18" fill="#75a884"/>
    <circle cx="610" cy="310" r="18" fill="#f4ead7"/>
    <circle cx="850" cy="352" r="24" fill="#75a884"/>
    <circle cx="1080" cy="332" r="18" fill="#d2a242"/>
    <circle cx="610" cy="450" r="18" fill="#75a884"/>
    <circle cx="858" cy="468" r="22" fill="#d2a242"/>
    <circle cx="1080" cy="430" r="18" fill="#f4ead7"/>
  </g>

  <g font-family="Georgia, serif" fill="#f4ead7">
    <text x="600" y="92" font-size="24" letter-spacing="5">SMALL TOWN CAPITAL</text>
    <text x="600" y="550" font-size="44" font-weight="700">Institutional footprint map</text>
    <text x="604" y="588" font-size="21" fill="#dcc9a5">follow the holder, source the claim, leave room to be wrong</text>
  </g>
</svg>
