<svg xmlns="http://www.w3.org/2000/svg" viewBox="0 0 1200 630" role="img" aria-labelledby="title desc">
  <title id="title">Public proof without the playbook</title>
  <desc id="desc">A public notebook with a locked private cabinet behind it.</desc>
  <defs>
    <linearGradient id="bg" x1="0" x2="1" y1="0" y2="1">
      <stop offset="0" stop-color="#fff8df"/>
      <stop offset="0.48" stop-color="#d8d3bd"/>
      <stop offset="1" stop-color="#22353b"/>
    </linearGradient>
  </defs>
  <rect width="1200" height="630" fill="url(#bg)"/>
  <circle cx="1004" cy="110" r="210" fill="#37505c" opacity="0.18"/>
  <circle cx="116" cy="560" r="260" fill="#1f5d42" opacity="0.15"/>
  <rect x="94" y="92" width="486" height="428" rx="30" fill="#fffdf2" stroke="#37505c" stroke-opacity="0.18"/>
  <text x="132" y="154" fill="#111b20" font-family="Georgia, serif" font-size="42">public notebook</text>
  <rect x="134" y="206" width="360" height="12" rx="6" fill="#60739f" opacity="0.55"/>
  <rect x="134" y="244" width="306" height="12" rx="6" fill="#60739f" opacity="0.4"/>
  <rect x="134" y="282" width="392" height="12" rx="6" fill="#60739f" opacity="0.55"/>
  <rect x="134" y="346" width="150" height="42" rx="12" fill="#37505c" opacity="0.94"/>
  <rect x="306" y="346" width="170" height="42" rx="12" fill="#1f5d42" opacity="0.94"/>
  <rect x="674" y="134" width="360" height="330" rx="28" fill="#111b20" stroke="#fff8df" stroke-opacity="0.22"/>
  <rect x="730" y="220" width="248" height="180" rx="18" fill="#17262c" stroke="#fff8df" stroke-opacity="0.16"/>
  <path d="M776 220v-34c0-52 36-88 78-88s78 36 78 88v34" fill="none" stroke="#fff8df" stroke-width="22" stroke-linecap="round" opacity="0.92"/>
  <circle cx="854" cy="306" r="28" fill="#fff8df"/>
  <rect x="842" y="328" width="24" height="46" rx="10" fill="#fff8df"/>
  <text x="94" y="574" fill="#111b20" font-family="Arial, sans-serif" font-size="24" letter-spacing="5">SHOW THE WORK / KEEP THE EDGE</text>
</svg>
