<svg xmlns="http://www.w3.org/2000/svg" viewBox="0 0 1200 675" role="img" aria-labelledby="title desc"><title id="title">From Public Records to Market Research</title><desc id="desc">A split research board connecting civic documents to market filings with thread lines.</desc><rect width="1200" height="675" fill="#f4f0df"/><rect x="55" y="60" width="505" height="535" rx="28" fill="#fffbea" stroke="#1d3b2b" stroke-width="4"/><rect x="640" y="60" width="505" height="535" rx="28" fill="#fffbea" stroke="#1d3b2b" stroke-width="4"/><text x="307" y="115" text-anchor="middle" font-family="Inter, Arial" font-size="34" font-weight="800" fill="#1d3b2b">Public Records</text><text x="892" y="115" text-anchor="middle" font-family="Inter, Arial" font-size="34" font-weight="800" fill="#1d3b2b">Market Research</text><g fill="#f7d9b8" stroke="#1d3b2b" stroke-width="3"><rect x="105" y="170" width="175" height="90" rx="14"/><rect x="325" y="165" width="145" height="105" rx="14"/><rect x="130" y="330" width="180" height="90" rx="14"/><rect x="345" y="350" width="135" height="95" rx="14"/><rect x="700" y="170" width="180" height="95" rx="14"/><rect x="925" y="160" width="145" height="110" rx="14"/><rect x="715" y="345" width="170" height="105" rx="14"/><rect x="925" y="350" width="160" height="90" rx="14"/></g><g font-family="Inter, Arial" font-size="22" font-weight="700" fill="#1d3b2b"><text x="193" y="220" text-anchor="middle">Meeting minutes</text><text x="397" y="218" text-anchor="middle">Entity map</text><text x="220" y="382" text-anchor="middle">Property record</text><text x="413" y="405" text-anchor="middle">Timeline</text><text x="790" y="222" text-anchor="middle">SEC filing</text><text x="997" y="215" text-anchor="middle">Ticker dossier</text><text x="800" y="400" text-anchor="middle">Options grid</text><text x="1005" y="402" text-anchor="middle">Catalyst map</text></g><g stroke="#8d2f2a" stroke-width="5" fill="none" opacity=".8"><path d="M280 220 C410 240 470 315 590 335 C720 350 770 270 880 220"/><path d="M310 382 C450 390 505 330 590 335 C705 342 790 395 925 402"/><path d="M470 218 C555 245 570 295 590 335 C625 390 675 405 715 400"/></g><circle cx="590" cy="335" r="44" fill="#1d3b2b"/><text x="590" y="329" text-anchor="middle" font-family="Inter, Arial" font-size="18" font-weight="800" fill="#fffbea">Follow</text><text x="590" y="352" text-anchor="middle" font-family="Inter, Arial" font-size="18" font-weight="800" fill="#fffbea">paperwork</text><g font-family="Inter, Arial" font-size="19" font-weight="700"><rect x="188" y="508" width="120" height="42" rx="12" fill="#e9f0df" stroke="#1d3b2b"/><text x="248" y="535" text-anchor="middle" fill="#1d3b2b">Facts</text><rect x="468" y="508" width="150" height="42" rx="12" fill="#f5e8c8" stroke="#1d3b2b"/><text x="543" y="535" text-anchor="middle" fill="#1d3b2b">Questions</text><rect x="788" y="508" width="150" height="42" rx="12" fill="#e9f0df" stroke="#1d3b2b"/><text x="863" y="535" text-anchor="middle" fill="#1d3b2b">Sources</text></g></svg>