<svg xmlns="http://www.w3.org/2000/svg" viewBox="0 0 1200 675" role="img" aria-labelledby="title desc">
<title id="title">Small Town Capital Intelligence Machine</title><desc id="desc">A dark editorial vector dashboard connecting capture, research, score, structure, verdict, and review.</desc>
<defs><linearGradient id="bg" x1="0" y1="0" x2="1" y2="1"><stop offset="0" stop-color="#07121a"/><stop offset="0.55" stop-color="#10251f"/><stop offset="1" stop-color="#172d25"/></linearGradient><filter id="glow"><feGaussianBlur stdDeviation="4" result="b"/><feMerge><feMergeNode in="b"/><feMergeNode in="SourceGraphic"/></feMerge></filter></defs>
<rect width="1200" height="675" fill="url(#bg)"/><circle cx="930" cy="110" r="190" fill="#1f5d42" opacity="0.15"/><circle cx="180" cy="560" r="230" fill="#a58031" opacity="0.10"/>
<g opacity="0.16" stroke="#d8d5bd" stroke-width="1"><path d="M0 520 C200 430 250 610 460 500 S770 370 1200 440"/><path d="M0 430 C180 380 320 500 520 390 S810 250 1200 315"/></g>
<g transform="translate(350 145)"><rect x="0" y="0" width="500" height="310" rx="26" fill="#0d1b24" stroke="#d8d5bd" stroke-opacity=".28" stroke-width="2"/><rect x="28" y="34" width="444" height="70" rx="16" fill="#f4f1dc" opacity=".95"/><text x="250" y="78" text-anchor="middle" font-family="Inter, Arial, sans-serif" font-size="30" font-weight="700" fill="#10251f">Small Town Capital</text><path d="M50 220 L115 190 L175 210 L245 135 L325 165 L420 105" fill="none" stroke="#2ee68c" stroke-width="8" filter="url(#glow)"/><rect x="48" y="132" width="396" height="116" rx="14" fill="#10251f" stroke="#2ee68c" stroke-opacity=".32"/><g stroke="#d8d5bd" opacity=".22"><path d="M80 132v116M140 132v116M200 132v116M260 132v116M320 132v116M380 132v116M48 168h396M48 204h396"/></g></g>
<g font-family="Inter, Arial, sans-serif" font-weight="700" font-size="22" fill="#f4f1dc"><g><rect x="95" y="120" width="150" height="58" rx="18" fill="#123d2b" stroke="#a58031"/><text x="170" y="157" text-anchor="middle">Capture</text></g><g><rect x="105" y="300" width="150" height="58" rx="18" fill="#123d2b" stroke="#a58031"/><text x="180" y="337" text-anchor="middle">Research</text></g><g><rect x="170" y="490" width="130" height="58" rx="18" fill="#123d2b" stroke="#a58031"/><text x="235" y="527" text-anchor="middle">Score</text></g><g><rect x="895" y="120" width="155" height="58" rx="18" fill="#123d2b" stroke="#a58031"/><text x="972" y="157" text-anchor="middle">Structure</text></g><g><rect x="925" y="306" width="140" height="58" rx="18" fill="#123d2b" stroke="#a58031"/><text x="995" y="343" text-anchor="middle">Verdict</text></g><g><rect x="875" y="500" width="135" height="58" rx="18" fill="#123d2b" stroke="#a58031"/><text x="942" y="537" text-anchor="middle">Review</text></g></g>
<g stroke="#a58031" stroke-width="3" opacity=".75" fill="none"><path d="M245 149 C300 145 305 150 350 175"/><path d="M255 329 C305 320 315 320 350 300"/><path d="M300 519 C360 500 385 475 420 455"/><path d="M850 185 C885 165 880 151 895 149"/><path d="M850 300 C890 310 900 322 925 335"/><path d="M850 440 C890 465 900 495 875 529"/></g>
<g transform="translate(70 430)" fill="#f4f1dc" opacity=".72"><path d="M0 80h190v18H0zM20 40h150v40H20zM40 10h110l-55-30z"/><rect x="50" y="52" width="18" height="28" fill="#07121a"/><rect x="90" y="52" width="18" height="28" fill="#07121a"/><rect x="130" y="52" width="18" height="28" fill="#07121a"/></g>
<text x="600" y="620" text-anchor="middle" font-family="Inter, Arial, sans-serif" font-size="25" fill="#d8d5bd" opacity=".9">Research → Structure → Publish → Build → Invest → Learn → Repeat</text></svg>